<svg xmlns="http://www.w3.org/2000/svg" xmlns:xlink="http://www.w3.org/1999/xlink" width="200" zoomAndPan="magnify" viewBox="0 0 150 149.999998" height="200" preserveAspectRatio="xMidYMid meet" version="1.0"><defs><clipPath id="1c69103c76"><path d="M 15.039062 3.300781 L 148 3.300781 L 148 127.050781 L 15.039062 127.050781 Z M 15.039062 3.300781 " clip-rule="nonzero"/></clipPath></defs><g clip-path="url(#1c69103c76)"><path fill="#000000" d="M 143.734375 37.171875 C 134.425781 28.160156 126.210938 34.714844 123.472656 37.445312 L 110.878906 50.558594 L 110.878906 14.226562 C 110.878906 8.214844 105.949219 3.300781 99.925781 3.300781 L 26.824219 3.300781 C 20.800781 3.300781 15.871094 8.214844 15.871094 14.226562 L 15.871094 116.121094 C 15.871094 122.132812 20.800781 127.050781 26.824219 127.050781 L 99.652344 127.050781 C 105.675781 127.050781 110.605469 122.132812 110.605469 116.121094 L 110.605469 92.082031 L 143.734375 57.117188 C 149.207031 51.652344 149.207031 42.636719 143.734375 37.171875 Z M 123.199219 45.367188 L 127.304688 49.738281 L 87.332031 92.355469 L 83.226562 87.984375 L 96.640625 73.78125 Z M 90.070312 103.28125 L 77.476562 106.5625 L 80.761719 93.449219 L 85.140625 98.09375 C 85.140625 98.09375 85.414062 98.09375 85.414062 98.367188 Z M 105.128906 116.394531 C 105.128906 119.402344 102.664062 121.859375 99.652344 121.859375 L 26.824219 121.859375 C 23.8125 121.859375 21.347656 119.402344 21.347656 116.394531 L 21.347656 14.226562 C 21.347656 11.222656 23.8125 8.761719 26.824219 8.761719 L 99.652344 8.761719 C 102.664062 8.761719 105.128906 11.222656 105.128906 14.226562 L 105.128906 56.296875 L 77.476562 86.074219 C 77.476562 86.074219 76.925781 86.890625 76.652344 87.4375 L 70.902344 109.566406 C 70.628906 110.386719 70.902344 111.476562 71.726562 112.296875 C 72.546875 113.390625 74.191406 113.117188 74.464844 113.117188 L 96.09375 107.652344 C 96.09375 107.652344 97.460938 107.378906 97.460938 106.835938 L 105.402344 98.367188 L 105.402344 116.394531 Z M 95.273438 100.824219 L 91.164062 96.453125 L 131.136719 53.835938 L 135.246094 58.207031 Z M 139.898438 53.292969 L 139.078125 54.109375 L 127.03125 41.542969 L 127.304688 41.269531 C 130.589844 37.992188 136.339844 37.71875 139.625 41 C 143.183594 44.550781 143.183594 50.011719 139.898438 53.292969 Z M 139.898438 53.292969 " fill-opacity="1" fill-rule="nonzero"/></g><path fill="#000000" d="M 75.832031 37.445312 C 81.308594 37.445312 85.960938 32.804688 85.960938 27.339844 C 85.960938 21.875 81.308594 17.230469 75.832031 17.230469 C 70.355469 17.230469 65.703125 21.875 65.703125 27.339844 C 65.703125 33.074219 70.355469 37.445312 75.832031 37.445312 Z M 75.832031 22.96875 C 78.296875 22.96875 80.488281 25.152344 80.488281 27.613281 C 80.488281 30.070312 78.296875 32.257812 75.832031 32.257812 C 73.367188 32.257812 71.179688 30.070312 71.179688 27.613281 C 71.179688 24.878906 73.367188 22.96875 75.832031 22.96875 Z M 75.832031 22.96875 " fill-opacity="1" fill-rule="nonzero"/><path fill="#000000" d="M 62.144531 60.394531 C 63.785156 60.394531 64.882812 59.300781 64.882812 57.660156 C 64.882812 51.652344 69.808594 47.007812 76.105469 47.007812 C 82.402344 47.007812 87.332031 51.925781 87.332031 57.660156 C 87.332031 59.300781 88.425781 60.394531 90.070312 60.394531 C 91.710938 60.394531 92.808594 59.300781 92.808594 57.660156 C 92.808594 48.648438 85.414062 41.542969 76.105469 41.542969 C 66.796875 41.542969 59.40625 48.921875 59.40625 57.660156 C 59.40625 59.300781 60.5 60.394531 62.144531 60.394531 Z M 62.144531 60.394531 " fill-opacity="1" fill-rule="nonzero"/><path fill="#000000" d="M 29.5625 25.152344 L 49.546875 25.152344 C 51.191406 25.152344 52.285156 24.0625 52.285156 22.421875 C 52.285156 20.78125 51.191406 19.691406 49.546875 19.691406 L 29.5625 19.691406 C 27.917969 19.691406 26.824219 20.78125 26.824219 22.421875 C 26.824219 24.0625 27.917969 25.152344 29.5625 25.152344 Z M 29.5625 25.152344 " fill-opacity="1" fill-rule="nonzero"/><path fill="#000000" d="M 29.5625 42.910156 L 49.546875 42.910156 C 51.191406 42.910156 52.285156 41.816406 52.285156 40.179688 C 52.285156 38.539062 51.191406 37.445312 49.546875 37.445312 L 29.5625 37.445312 C 27.917969 37.445312 26.824219 38.539062 26.824219 40.179688 C 26.824219 41.816406 27.917969 42.910156 29.5625 42.910156 Z M 29.5625 42.910156 " fill-opacity="1" fill-rule="nonzero"/><path fill="#000000" d="M 29.5625 60.667969 L 49.546875 60.667969 C 51.191406 60.667969 52.285156 59.574219 52.285156 57.933594 C 52.285156 56.296875 51.191406 55.203125 49.546875 55.203125 L 29.5625 55.203125 C 27.917969 55.203125 26.824219 56.296875 26.824219 57.933594 C 26.824219 59.574219 27.917969 60.667969 29.5625 60.667969 Z M 29.5625 60.667969 " fill-opacity="1" fill-rule="nonzero"/><path fill="#000000" d="M 67.617188 72.960938 L 29.5625 72.960938 C 27.917969 72.960938 26.824219 74.054688 26.824219 75.691406 C 26.824219 77.332031 27.917969 78.421875 29.5625 78.421875 L 67.617188 78.421875 C 69.261719 78.421875 70.355469 77.332031 70.355469 75.691406 C 70.355469 74.054688 68.988281 72.960938 67.617188 72.960938 Z M 67.617188 72.960938 " fill-opacity="1" fill-rule="nonzero"/><path fill="#000000" d="M 67.617188 90.714844 L 29.5625 90.714844 C 27.917969 90.714844 26.824219 91.808594 26.824219 93.449219 C 26.824219 95.085938 27.917969 96.179688 29.5625 96.179688 L 67.617188 96.179688 C 69.261719 96.179688 70.355469 95.085938 70.355469 93.449219 C 70.355469 91.808594 68.988281 90.714844 67.617188 90.714844 Z M 67.617188 90.714844 " fill-opacity="1" fill-rule="nonzero"/><path fill="#000000" d="M 67.617188 108.199219 L 29.5625 108.199219 C 27.917969 108.199219 26.824219 109.292969 26.824219 110.933594 C 26.824219 112.570312 27.917969 113.664062 29.5625 113.664062 L 67.617188 113.664062 C 69.261719 113.664062 70.355469 112.570312 70.355469 110.933594 C 70.355469 109.292969 68.988281 108.199219 67.617188 108.199219 Z M 67.617188 108.199219 " fill-opacity="1" fill-rule="nonzero"/></svg>