<svg xmlns="http://www.w3.org/2000/svg" xmlns:xlink="http://www.w3.org/1999/xlink" width="500" zoomAndPan="magnify" viewBox="0 0 375 374.999991" height="500" preserveAspectRatio="xMidYMid meet" version="1.0"><defs><clipPath id="b61e9a3749"><path d="M 62 13.425781 L 234.503906 13.425781 L 234.503906 263.925781 L 62 263.925781 Z M 62 13.425781 " clip-rule="nonzero"/></clipPath><clipPath id="40a3a0a36f"><path d="M 45.503906 53 L 93 53 L 93 263.925781 L 45.503906 263.925781 Z M 45.503906 53 " clip-rule="nonzero"/></clipPath><clipPath id="31d4ea082a"><path d="M 140.152344 138.597656 L 353.902344 138.597656 L 353.902344 361.316406 L 140.152344 361.316406 Z M 140.152344 138.597656 " clip-rule="nonzero"/></clipPath></defs><g clip-path="url(#b61e9a3749)"><path fill="#ffffff" d="M 82.585938 58.859375 L 151.125 58.859375 C 156.042969 58.859375 160.335938 60.066406 164 62.472656 C 167.660156 64.886719 170.496094 68.328125 172.503906 72.804688 C 174.5 77.28125 175.507812 82.441406 175.507812 88.289062 C 175.390625 94.148438 174.332031 99.3125 172.328125 103.789062 C 170.324219 108.265625 167.488281 111.707031 163.824219 114.113281 C 160.160156 116.527344 155.929688 117.730469 151.125 117.730469 L 106.8125 117.730469 L 179.421875 263.863281 L 234.492188 263.925781 L 174.726562 160.695312 C 180.535156 159.148438 185.976562 156.878906 191.046875 153.878906 C 201.523438 147.679688 209.617188 138.929688 215.34375 127.625 C 221.070312 116.324219 223.933594 103.207031 223.933594 88.289062 C 223.933594 73.378906 221.070312 60.269531 215.34375 48.964844 C 209.617188 37.664062 201.550781 28.914062 191.132812 22.714844 C 180.714844 16.515625 168.636719 13.417969 154.898438 13.417969 L 62.105469 13.417969 L 82.585938 58.859375 " fill-opacity="1" fill-rule="nonzero"/></g><g clip-path="url(#40a3a0a36f)"><path fill="#ffffff" d="M 45.511719 53.839844 L 45.511719 263.863281 L 92.566406 263.863281 L 92.566406 166.375 L 45.511719 53.839844 " fill-opacity="1" fill-rule="nonzero"/></g><g clip-path="url(#31d4ea082a)"><path fill="#ffffff" d="M 353.902344 361.316406 L 251.324219 361.316406 C 189.921875 361.316406 140.152344 311.460938 140.152344 249.957031 C 140.152344 219.207031 152.597656 191.359375 172.714844 171.214844 C 192.835938 151.0625 220.617188 138.59375 251.324219 138.59375 L 345.675781 138.59375 L 311.980469 172.347656 L 260.410156 172.347656 C 239.011719 172.347656 219.648438 181.035156 205.628906 195.078125 C 191.605469 209.125 182.9375 228.519531 182.9375 249.957031 C 182.9375 292.820312 217.621094 327.5625 260.410156 327.5625 L 320.207031 327.5625 L 353.902344 361.316406 " fill-opacity="1" fill-rule="nonzero"/></g></svg>