<svg xmlns="http://www.w3.org/2000/svg" xmlns:xlink="http://www.w3.org/1999/xlink" width="200" zoomAndPan="magnify" viewBox="0 0 150 149.999998" height="200" preserveAspectRatio="xMidYMid meet" version="1.0"><defs><clipPath id="59e0476d3d"><path d="M 6.472656 6.472656 L 143.722656 6.472656 L 143.722656 143.722656 L 6.472656 143.722656 Z M 6.472656 6.472656 " clip-rule="nonzero"/></clipPath></defs><g clip-path="url(#59e0476d3d)"><path fill="#000000" d="M 75.097656 6.472656 C 112.839844 6.472656 143.722656 37.351562 143.722656 75.097656 C 143.722656 112.839844 112.839844 143.722656 75.097656 143.722656 C 37.351562 143.722656 6.472656 112.839844 6.472656 75.097656 C 6.472656 37.351562 37.351562 6.472656 75.097656 6.472656 Z M 75.097656 14.074219 C 41.535156 14.074219 14.074219 41.535156 14.074219 75.097656 C 14.074219 108.660156 41.535156 136.121094 75.097656 136.121094 C 108.660156 136.121094 136.121094 108.660156 136.121094 75.097656 C 136.121094 41.535156 108.660156 14.074219 75.097656 14.074219 " fill-opacity="1" fill-rule="evenodd"/></g><path fill="#000000" d="M 38.953125 52.355469 L 111.242188 52.355469 C 112.453125 52.355469 113.550781 52.847656 114.347656 53.644531 C 115.144531 54.441406 115.640625 55.542969 115.640625 56.75 L 115.640625 58.453125 C 113.171875 64.28125 106.734375 68.917969 101.722656 72.363281 C 95.761719 76.457031 88.207031 78.875 80.351562 79.617188 L 80.351562 78.171875 C 80.351562 76.878906 79.824219 75.707031 78.972656 74.855469 C 78.121094 74.003906 76.945312 73.476562 75.65625 73.476562 L 74.539062 73.476562 C 73.246094 73.476562 72.070312 74.003906 71.222656 74.855469 C 70.371094 75.707031 69.84375 76.878906 69.84375 78.171875 L 69.84375 79.617188 C 61.988281 78.875 54.433594 76.457031 48.472656 72.363281 C 43.460938 68.921875 37.023438 64.285156 34.554688 58.453125 L 34.554688 56.75 C 34.554688 55.542969 35.050781 54.441406 35.847656 53.644531 C 36.640625 52.847656 37.742188 52.355469 38.953125 52.355469 Z M 115.640625 63.421875 C 112.355469 67.882812 107.355469 71.5625 103.144531 74.453125 C 96.765625 78.832031 88.699219 81.402344 80.351562 82.15625 L 80.351562 84.746094 C 80.351562 86.039062 79.824219 87.214844 78.972656 88.066406 C 78.121094 88.914062 76.945312 89.445312 75.65625 89.445312 L 74.539062 89.445312 C 73.246094 89.445312 72.070312 88.914062 71.222656 88.066406 C 70.371094 87.214844 69.84375 86.039062 69.84375 84.746094 L 69.84375 82.15625 C 61.492188 81.402344 53.425781 78.832031 47.050781 74.453125 C 42.839844 71.5625 37.839844 67.882812 34.554688 63.421875 L 34.554688 97.5 L 115.640625 97.5 Z M 115.640625 100.035156 L 115.640625 104.132812 C 115.640625 105.34375 115.144531 106.445312 114.347656 107.238281 C 113.550781 108.035156 112.453125 108.53125 111.242188 108.53125 L 38.953125 108.53125 C 37.742188 108.53125 36.640625 108.035156 35.847656 107.238281 C 35.050781 106.445312 34.554688 105.34375 34.554688 104.132812 L 34.554688 100.035156 L 115.640625 100.035156 " fill-opacity="1" fill-rule="nonzero"/><path fill="#000000" d="M 64.335938 41.664062 L 85.855469 41.664062 C 86.554688 41.664062 87.125 42.230469 87.125 42.929688 L 87.125 51.089844 L 63.070312 51.089844 L 63.070312 42.929688 C 63.070312 42.230469 63.636719 41.664062 64.335938 41.664062 " fill-opacity="1" fill-rule="nonzero"/></svg>